# xmcd
#
# Track frame offsets:
#	150
#	16490
#	32802
#	46542
#	57822
#	71483
#	82259
#	95983
#	112498
#	126874
#	136849
#	146870
#	160786
#	171877
#	185619
#	200402
#
# Disc length: 2894 seconds
#
# Revision: 0
# Processed by: cddbd v1.5.2PL0 Copyright (c) Steve Scherf et al.
# Submitted via: dBpowerAMP V4.0
#
DISCID=ee0b4c10
DTITLE=The Blakes - Souvenir
DYEAR=2009
DGENRE=Rock
TTITLE0=Move to the City
TTITLE1=Charmed
TTITLE2=Dog of Sin
TTITLE3=Tommy
TTITLE4=Basket
TTITLE5=Little Bit About You
TTITLE6=So Easy
TTITLE7=Magic
TTITLE8=Ivory Walls
TTITLE9=Next Time Around
TTITLE10=Batista
TTITLE11=Lurleen
TTITLE12=Wolf in Sheep's Clothes
TTITLE13=Music Together
TTITLE14=A Fire
TTITLE15=Ramshackle Hearse
EXTD=
EXTT0=
EXTT1=
EXTT2=
EXTT3=
EXTT4=
EXTT5=
EXTT6=
EXTT7=
EXTT8=
EXTT9=
EXTT10=
EXTT11=
EXTT12=
EXTT13=
EXTT14=
EXTT15=
PLAYORDER=
